<mxfile host="app.diagrams.net" modified="2021-05-31T17:43:27.652Z" agent="5.0 (Windows NT 10.0; Win64; x64) AppleWebKit/537.36 (KHTML, like Gecko) Chrome/91.0.4472.77 Safari/537.36" etag="78SCmGWg22s0MjNt1aZP" version="14.7.3" type="github">
  <diagram id="C5RBs43oDa-KdzZeNtuy" name="Page-1">
    <mxGraphModel dx="1038" dy="579" grid="1" gridSize="10" guides="1" tooltips="1" connect="1" arrows="1" fold="1" page="1" pageScale="1" pageWidth="827" pageHeight="1169" math="0" shadow="0">
      <root>
        <mxCell id="WIyWlLk6GJQsqaUBKTNV-0" />
        <mxCell id="WIyWlLk6GJQsqaUBKTNV-1" parent="WIyWlLk6GJQsqaUBKTNV-0" />
        <mxCell id="0ubzOqU264QeY3HJ3DIO-4" value="" style="edgeStyle=orthogonalEdgeStyle;rounded=0;orthogonalLoop=1;jettySize=auto;html=1;" edge="1" parent="WIyWlLk6GJQsqaUBKTNV-1" source="0ubzOqU264QeY3HJ3DIO-2" target="0ubzOqU264QeY3HJ3DIO-3">
          <mxGeometry relative="1" as="geometry" />
        </mxCell>
        <mxCell id="0ubzOqU264QeY3HJ3DIO-2" value="" style="verticalLabelPosition=bottom;verticalAlign=top;html=1;shape=mxgraph.flowchart.on-page_reference;" vertex="1" parent="WIyWlLk6GJQsqaUBKTNV-1">
          <mxGeometry x="330" y="20" width="40" height="40" as="geometry" />
        </mxCell>
        <mxCell id="0ubzOqU264QeY3HJ3DIO-3" value="" style="verticalLabelPosition=bottom;verticalAlign=top;html=1;shape=mxgraph.flowchart.on-page_reference;" vertex="1" parent="WIyWlLk6GJQsqaUBKTNV-1">
          <mxGeometry x="330" y="90" width="40" height="40" as="geometry" />
        </mxCell>
        <mxCell id="0ubzOqU264QeY3HJ3DIO-5" value="1" style="text;html=1;strokeColor=none;fillColor=none;align=center;verticalAlign=middle;whiteSpace=wrap;rounded=0;" vertex="1" parent="WIyWlLk6GJQsqaUBKTNV-1">
          <mxGeometry x="330" y="30" width="40" height="20" as="geometry" />
        </mxCell>
        <mxCell id="0ubzOqU264QeY3HJ3DIO-6" value="2.1" style="text;html=1;strokeColor=none;fillColor=none;align=center;verticalAlign=middle;whiteSpace=wrap;rounded=0;" vertex="1" parent="WIyWlLk6GJQsqaUBKTNV-1">
          <mxGeometry x="330" y="100" width="40" height="20" as="geometry" />
        </mxCell>
        <mxCell id="0ubzOqU264QeY3HJ3DIO-7" value="" style="ellipse;whiteSpace=wrap;html=1;" vertex="1" parent="WIyWlLk6GJQsqaUBKTNV-1">
          <mxGeometry x="410" y="90" width="40" height="40" as="geometry" />
        </mxCell>
        <mxCell id="0ubzOqU264QeY3HJ3DIO-11" style="edgeStyle=orthogonalEdgeStyle;rounded=0;orthogonalLoop=1;jettySize=auto;html=1;" edge="1" parent="WIyWlLk6GJQsqaUBKTNV-1" source="0ubzOqU264QeY3HJ3DIO-9" target="0ubzOqU264QeY3HJ3DIO-6">
          <mxGeometry relative="1" as="geometry" />
        </mxCell>
        <mxCell id="0ubzOqU264QeY3HJ3DIO-13" value="" style="edgeStyle=orthogonalEdgeStyle;rounded=0;orthogonalLoop=1;jettySize=auto;html=1;" edge="1" parent="WIyWlLk6GJQsqaUBKTNV-1" source="0ubzOqU264QeY3HJ3DIO-9" target="0ubzOqU264QeY3HJ3DIO-12">
          <mxGeometry relative="1" as="geometry" />
        </mxCell>
        <mxCell id="0ubzOqU264QeY3HJ3DIO-9" value="2.2" style="text;html=1;strokeColor=none;fillColor=none;align=center;verticalAlign=middle;whiteSpace=wrap;rounded=0;" vertex="1" parent="WIyWlLk6GJQsqaUBKTNV-1">
          <mxGeometry x="410" y="100" width="40" height="20" as="geometry" />
        </mxCell>
        <mxCell id="0ubzOqU264QeY3HJ3DIO-12" value="" style="ellipse;whiteSpace=wrap;html=1;" vertex="1" parent="WIyWlLk6GJQsqaUBKTNV-1">
          <mxGeometry x="370" y="170" width="40" height="40" as="geometry" />
        </mxCell>
        <mxCell id="0ubzOqU264QeY3HJ3DIO-16" value="" style="edgeStyle=orthogonalEdgeStyle;rounded=0;orthogonalLoop=1;jettySize=auto;html=1;" edge="1" parent="WIyWlLk6GJQsqaUBKTNV-1" source="0ubzOqU264QeY3HJ3DIO-14" target="0ubzOqU264QeY3HJ3DIO-15">
          <mxGeometry relative="1" as="geometry" />
        </mxCell>
        <mxCell id="0ubzOqU264QeY3HJ3DIO-28" style="edgeStyle=orthogonalEdgeStyle;rounded=0;orthogonalLoop=1;jettySize=auto;html=1;exitX=0;exitY=0.5;exitDx=0;exitDy=0;entryX=0.5;entryY=0;entryDx=0;entryDy=0;entryPerimeter=0;" edge="1" parent="WIyWlLk6GJQsqaUBKTNV-1" source="0ubzOqU264QeY3HJ3DIO-14" target="0ubzOqU264QeY3HJ3DIO-27">
          <mxGeometry relative="1" as="geometry" />
        </mxCell>
        <mxCell id="0ubzOqU264QeY3HJ3DIO-14" value="3" style="text;html=1;strokeColor=none;fillColor=none;align=center;verticalAlign=middle;whiteSpace=wrap;rounded=0;" vertex="1" parent="WIyWlLk6GJQsqaUBKTNV-1">
          <mxGeometry x="370" y="180" width="40" height="20" as="geometry" />
        </mxCell>
        <mxCell id="0ubzOqU264QeY3HJ3DIO-22" value="" style="edgeStyle=orthogonalEdgeStyle;rounded=0;orthogonalLoop=1;jettySize=auto;html=1;" edge="1" parent="WIyWlLk6GJQsqaUBKTNV-1" source="0ubzOqU264QeY3HJ3DIO-15" target="0ubzOqU264QeY3HJ3DIO-21">
          <mxGeometry relative="1" as="geometry" />
        </mxCell>
        <mxCell id="0ubzOqU264QeY3HJ3DIO-15" value="" style="verticalLabelPosition=bottom;verticalAlign=top;html=1;shape=mxgraph.flowchart.on-page_reference;" vertex="1" parent="WIyWlLk6GJQsqaUBKTNV-1">
          <mxGeometry x="470" y="170" width="40" height="40" as="geometry" />
        </mxCell>
        <mxCell id="0ubzOqU264QeY3HJ3DIO-17" value="4" style="text;html=1;strokeColor=none;fillColor=none;align=center;verticalAlign=middle;whiteSpace=wrap;rounded=0;" vertex="1" parent="WIyWlLk6GJQsqaUBKTNV-1">
          <mxGeometry x="470" y="180" width="40" height="20" as="geometry" />
        </mxCell>
        <mxCell id="0ubzOqU264QeY3HJ3DIO-25" style="edgeStyle=orthogonalEdgeStyle;rounded=0;orthogonalLoop=1;jettySize=auto;html=1;exitX=0.5;exitY=0;exitDx=0;exitDy=0;exitPerimeter=0;entryX=1;entryY=0.5;entryDx=0;entryDy=0;" edge="1" parent="WIyWlLk6GJQsqaUBKTNV-1" source="0ubzOqU264QeY3HJ3DIO-18" target="0ubzOqU264QeY3HJ3DIO-17">
          <mxGeometry relative="1" as="geometry" />
        </mxCell>
        <mxCell id="0ubzOqU264QeY3HJ3DIO-74" style="edgeStyle=orthogonalEdgeStyle;rounded=0;orthogonalLoop=1;jettySize=auto;html=1;exitX=0.5;exitY=1;exitDx=0;exitDy=0;exitPerimeter=0;entryX=0.855;entryY=0.145;entryDx=0;entryDy=0;entryPerimeter=0;" edge="1" parent="WIyWlLk6GJQsqaUBKTNV-1" source="0ubzOqU264QeY3HJ3DIO-18" target="0ubzOqU264QeY3HJ3DIO-62">
          <mxGeometry relative="1" as="geometry" />
        </mxCell>
        <mxCell id="0ubzOqU264QeY3HJ3DIO-18" value="" style="verticalLabelPosition=bottom;verticalAlign=top;html=1;shape=mxgraph.flowchart.on-page_reference;" vertex="1" parent="WIyWlLk6GJQsqaUBKTNV-1">
          <mxGeometry x="550" y="230" width="40" height="40" as="geometry" />
        </mxCell>
        <mxCell id="0ubzOqU264QeY3HJ3DIO-19" value="" style="verticalLabelPosition=bottom;verticalAlign=top;html=1;shape=mxgraph.flowchart.on-page_reference;" vertex="1" parent="WIyWlLk6GJQsqaUBKTNV-1">
          <mxGeometry x="450" y="230" width="40" height="40" as="geometry" />
        </mxCell>
        <mxCell id="0ubzOqU264QeY3HJ3DIO-20" value="5" style="text;html=1;strokeColor=none;fillColor=none;align=center;verticalAlign=middle;whiteSpace=wrap;rounded=0;" vertex="1" parent="WIyWlLk6GJQsqaUBKTNV-1">
          <mxGeometry x="550" y="240" width="40" height="20" as="geometry" />
        </mxCell>
        <mxCell id="0ubzOqU264QeY3HJ3DIO-21" value="6" style="text;html=1;strokeColor=none;fillColor=none;align=center;verticalAlign=middle;whiteSpace=wrap;rounded=0;" vertex="1" parent="WIyWlLk6GJQsqaUBKTNV-1">
          <mxGeometry x="450" y="240" width="40" height="20" as="geometry" />
        </mxCell>
        <mxCell id="0ubzOqU264QeY3HJ3DIO-27" value="" style="verticalLabelPosition=bottom;verticalAlign=top;html=1;shape=mxgraph.flowchart.on-page_reference;" vertex="1" parent="WIyWlLk6GJQsqaUBKTNV-1">
          <mxGeometry x="260" y="210" width="40" height="40" as="geometry" />
        </mxCell>
        <mxCell id="0ubzOqU264QeY3HJ3DIO-29" value="7" style="text;html=1;strokeColor=none;fillColor=none;align=center;verticalAlign=middle;whiteSpace=wrap;rounded=0;" vertex="1" parent="WIyWlLk6GJQsqaUBKTNV-1">
          <mxGeometry x="260" y="220" width="40" height="20" as="geometry" />
        </mxCell>
        <mxCell id="0ubzOqU264QeY3HJ3DIO-30" value="" style="verticalLabelPosition=bottom;verticalAlign=top;html=1;shape=mxgraph.flowchart.on-page_reference;" vertex="1" parent="WIyWlLk6GJQsqaUBKTNV-1">
          <mxGeometry x="340" y="260" width="40" height="40" as="geometry" />
        </mxCell>
        <mxCell id="0ubzOqU264QeY3HJ3DIO-32" style="edgeStyle=orthogonalEdgeStyle;rounded=0;orthogonalLoop=1;jettySize=auto;html=1;entryX=1;entryY=0.5;entryDx=0;entryDy=0;" edge="1" parent="WIyWlLk6GJQsqaUBKTNV-1" source="0ubzOqU264QeY3HJ3DIO-31" target="0ubzOqU264QeY3HJ3DIO-29">
          <mxGeometry relative="1" as="geometry" />
        </mxCell>
        <mxCell id="0ubzOqU264QeY3HJ3DIO-31" value="8" style="text;html=1;strokeColor=none;fillColor=none;align=center;verticalAlign=middle;whiteSpace=wrap;rounded=0;" vertex="1" parent="WIyWlLk6GJQsqaUBKTNV-1">
          <mxGeometry x="340" y="270" width="40" height="20" as="geometry" />
        </mxCell>
        <mxCell id="0ubzOqU264QeY3HJ3DIO-33" value="" style="verticalLabelPosition=bottom;verticalAlign=top;html=1;shape=mxgraph.flowchart.on-page_reference;" vertex="1" parent="WIyWlLk6GJQsqaUBKTNV-1">
          <mxGeometry x="420" y="320" width="40" height="40" as="geometry" />
        </mxCell>
        <mxCell id="0ubzOqU264QeY3HJ3DIO-38" style="edgeStyle=orthogonalEdgeStyle;rounded=0;orthogonalLoop=1;jettySize=auto;html=1;entryX=0.5;entryY=1;entryDx=0;entryDy=0;entryPerimeter=0;" edge="1" parent="WIyWlLk6GJQsqaUBKTNV-1" source="0ubzOqU264QeY3HJ3DIO-34" target="0ubzOqU264QeY3HJ3DIO-30">
          <mxGeometry relative="1" as="geometry" />
        </mxCell>
        <mxCell id="0ubzOqU264QeY3HJ3DIO-34" value="" style="verticalLabelPosition=bottom;verticalAlign=top;html=1;shape=mxgraph.flowchart.on-page_reference;" vertex="1" parent="WIyWlLk6GJQsqaUBKTNV-1">
          <mxGeometry x="330" y="340" width="40" height="40" as="geometry" />
        </mxCell>
        <mxCell id="0ubzOqU264QeY3HJ3DIO-37" style="edgeStyle=orthogonalEdgeStyle;rounded=0;orthogonalLoop=1;jettySize=auto;html=1;entryX=1;entryY=0.5;entryDx=0;entryDy=0;" edge="1" parent="WIyWlLk6GJQsqaUBKTNV-1" source="0ubzOqU264QeY3HJ3DIO-35" target="0ubzOqU264QeY3HJ3DIO-31">
          <mxGeometry relative="1" as="geometry" />
        </mxCell>
        <mxCell id="0ubzOqU264QeY3HJ3DIO-72" style="edgeStyle=orthogonalEdgeStyle;rounded=0;orthogonalLoop=1;jettySize=auto;html=1;exitX=1;exitY=0.75;exitDx=0;exitDy=0;entryX=0.5;entryY=0;entryDx=0;entryDy=0;entryPerimeter=0;" edge="1" parent="WIyWlLk6GJQsqaUBKTNV-1" source="0ubzOqU264QeY3HJ3DIO-35" target="0ubzOqU264QeY3HJ3DIO-62">
          <mxGeometry relative="1" as="geometry" />
        </mxCell>
        <mxCell id="0ubzOqU264QeY3HJ3DIO-35" value="9" style="text;html=1;strokeColor=none;fillColor=none;align=center;verticalAlign=middle;whiteSpace=wrap;rounded=0;" vertex="1" parent="WIyWlLk6GJQsqaUBKTNV-1">
          <mxGeometry x="420" y="330" width="40" height="20" as="geometry" />
        </mxCell>
        <mxCell id="0ubzOqU264QeY3HJ3DIO-36" value="10" style="text;html=1;strokeColor=none;fillColor=none;align=center;verticalAlign=middle;whiteSpace=wrap;rounded=0;" vertex="1" parent="WIyWlLk6GJQsqaUBKTNV-1">
          <mxGeometry x="330" y="350" width="40" height="20" as="geometry" />
        </mxCell>
        <mxCell id="0ubzOqU264QeY3HJ3DIO-39" value="" style="verticalLabelPosition=bottom;verticalAlign=top;html=1;shape=mxgraph.flowchart.on-page_reference;" vertex="1" parent="WIyWlLk6GJQsqaUBKTNV-1">
          <mxGeometry x="280" y="410" width="40" height="40" as="geometry" />
        </mxCell>
        <mxCell id="0ubzOqU264QeY3HJ3DIO-71" style="edgeStyle=orthogonalEdgeStyle;rounded=0;orthogonalLoop=1;jettySize=auto;html=1;exitX=0.5;exitY=1;exitDx=0;exitDy=0;exitPerimeter=0;entryX=0;entryY=0.75;entryDx=0;entryDy=0;" edge="1" parent="WIyWlLk6GJQsqaUBKTNV-1" source="0ubzOqU264QeY3HJ3DIO-40" target="0ubzOqU264QeY3HJ3DIO-63">
          <mxGeometry relative="1" as="geometry" />
        </mxCell>
        <mxCell id="0ubzOqU264QeY3HJ3DIO-40" value="" style="verticalLabelPosition=bottom;verticalAlign=top;html=1;shape=mxgraph.flowchart.on-page_reference;" vertex="1" parent="WIyWlLk6GJQsqaUBKTNV-1">
          <mxGeometry x="394" y="410" width="40" height="40" as="geometry" />
        </mxCell>
        <mxCell id="0ubzOqU264QeY3HJ3DIO-44" style="edgeStyle=orthogonalEdgeStyle;rounded=0;orthogonalLoop=1;jettySize=auto;html=1;entryX=0.5;entryY=1;entryDx=0;entryDy=0;entryPerimeter=0;" edge="1" parent="WIyWlLk6GJQsqaUBKTNV-1" source="0ubzOqU264QeY3HJ3DIO-41" target="0ubzOqU264QeY3HJ3DIO-34">
          <mxGeometry relative="1" as="geometry" />
        </mxCell>
        <mxCell id="0ubzOqU264QeY3HJ3DIO-57" style="edgeStyle=orthogonalEdgeStyle;rounded=0;orthogonalLoop=1;jettySize=auto;html=1;entryX=1;entryY=0.25;entryDx=0;entryDy=0;" edge="1" parent="WIyWlLk6GJQsqaUBKTNV-1" source="0ubzOqU264QeY3HJ3DIO-41" target="0ubzOqU264QeY3HJ3DIO-55">
          <mxGeometry relative="1" as="geometry" />
        </mxCell>
        <mxCell id="0ubzOqU264QeY3HJ3DIO-41" value="11" style="text;html=1;strokeColor=none;fillColor=none;align=center;verticalAlign=middle;whiteSpace=wrap;rounded=0;" vertex="1" parent="WIyWlLk6GJQsqaUBKTNV-1">
          <mxGeometry x="280" y="420" width="40" height="20" as="geometry" />
        </mxCell>
        <mxCell id="0ubzOqU264QeY3HJ3DIO-43" style="edgeStyle=orthogonalEdgeStyle;rounded=0;orthogonalLoop=1;jettySize=auto;html=1;entryX=0.855;entryY=0.855;entryDx=0;entryDy=0;entryPerimeter=0;" edge="1" parent="WIyWlLk6GJQsqaUBKTNV-1" source="0ubzOqU264QeY3HJ3DIO-42" target="0ubzOqU264QeY3HJ3DIO-34">
          <mxGeometry relative="1" as="geometry" />
        </mxCell>
        <mxCell id="0ubzOqU264QeY3HJ3DIO-42" value="12" style="text;html=1;strokeColor=none;fillColor=none;align=center;verticalAlign=middle;whiteSpace=wrap;rounded=0;" vertex="1" parent="WIyWlLk6GJQsqaUBKTNV-1">
          <mxGeometry x="394" y="420" width="40" height="20" as="geometry" />
        </mxCell>
        <mxCell id="0ubzOqU264QeY3HJ3DIO-51" style="edgeStyle=orthogonalEdgeStyle;rounded=0;orthogonalLoop=1;jettySize=auto;html=1;exitX=0.5;exitY=0;exitDx=0;exitDy=0;exitPerimeter=0;entryX=0;entryY=0.5;entryDx=0;entryDy=0;" edge="1" parent="WIyWlLk6GJQsqaUBKTNV-1" source="0ubzOqU264QeY3HJ3DIO-45" target="0ubzOqU264QeY3HJ3DIO-29">
          <mxGeometry relative="1" as="geometry" />
        </mxCell>
        <mxCell id="0ubzOqU264QeY3HJ3DIO-45" value="" style="verticalLabelPosition=bottom;verticalAlign=top;html=1;shape=mxgraph.flowchart.on-page_reference;" vertex="1" parent="WIyWlLk6GJQsqaUBKTNV-1">
          <mxGeometry x="170" y="270" width="40" height="40" as="geometry" />
        </mxCell>
        <mxCell id="0ubzOqU264QeY3HJ3DIO-46" value="13" style="text;html=1;strokeColor=none;fillColor=none;align=center;verticalAlign=middle;whiteSpace=wrap;rounded=0;" vertex="1" parent="WIyWlLk6GJQsqaUBKTNV-1">
          <mxGeometry x="170" y="280" width="40" height="20" as="geometry" />
        </mxCell>
        <mxCell id="0ubzOqU264QeY3HJ3DIO-52" style="edgeStyle=orthogonalEdgeStyle;rounded=0;orthogonalLoop=1;jettySize=auto;html=1;exitX=0.5;exitY=0;exitDx=0;exitDy=0;exitPerimeter=0;entryX=1;entryY=0.5;entryDx=0;entryDy=0;" edge="1" parent="WIyWlLk6GJQsqaUBKTNV-1" source="0ubzOqU264QeY3HJ3DIO-47" target="0ubzOqU264QeY3HJ3DIO-46">
          <mxGeometry relative="1" as="geometry" />
        </mxCell>
        <mxCell id="0ubzOqU264QeY3HJ3DIO-47" value="" style="verticalLabelPosition=bottom;verticalAlign=top;html=1;shape=mxgraph.flowchart.on-page_reference;" vertex="1" parent="WIyWlLk6GJQsqaUBKTNV-1">
          <mxGeometry x="220" y="350" width="40" height="40" as="geometry" />
        </mxCell>
        <mxCell id="0ubzOqU264QeY3HJ3DIO-48" value="" style="verticalLabelPosition=bottom;verticalAlign=top;html=1;shape=mxgraph.flowchart.on-page_reference;" vertex="1" parent="WIyWlLk6GJQsqaUBKTNV-1">
          <mxGeometry x="130" y="350" width="40" height="40" as="geometry" />
        </mxCell>
        <mxCell id="0ubzOqU264QeY3HJ3DIO-56" style="edgeStyle=orthogonalEdgeStyle;rounded=0;orthogonalLoop=1;jettySize=auto;html=1;entryX=0.5;entryY=0;entryDx=0;entryDy=0;entryPerimeter=0;" edge="1" parent="WIyWlLk6GJQsqaUBKTNV-1" source="0ubzOqU264QeY3HJ3DIO-49" target="0ubzOqU264QeY3HJ3DIO-54">
          <mxGeometry relative="1" as="geometry" />
        </mxCell>
        <mxCell id="0ubzOqU264QeY3HJ3DIO-49" value="14" style="text;html=1;strokeColor=none;fillColor=none;align=center;verticalAlign=middle;whiteSpace=wrap;rounded=0;" vertex="1" parent="WIyWlLk6GJQsqaUBKTNV-1">
          <mxGeometry x="220" y="360" width="40" height="20" as="geometry" />
        </mxCell>
        <mxCell id="0ubzOqU264QeY3HJ3DIO-53" style="edgeStyle=orthogonalEdgeStyle;rounded=0;orthogonalLoop=1;jettySize=auto;html=1;entryX=0.5;entryY=1;entryDx=0;entryDy=0;entryPerimeter=0;" edge="1" parent="WIyWlLk6GJQsqaUBKTNV-1" source="0ubzOqU264QeY3HJ3DIO-50" target="0ubzOqU264QeY3HJ3DIO-45">
          <mxGeometry relative="1" as="geometry" />
        </mxCell>
        <mxCell id="0ubzOqU264QeY3HJ3DIO-50" value="15" style="text;html=1;strokeColor=none;fillColor=none;align=center;verticalAlign=middle;whiteSpace=wrap;rounded=0;" vertex="1" parent="WIyWlLk6GJQsqaUBKTNV-1">
          <mxGeometry x="130" y="360" width="40" height="20" as="geometry" />
        </mxCell>
        <mxCell id="0ubzOqU264QeY3HJ3DIO-60" style="edgeStyle=orthogonalEdgeStyle;rounded=0;orthogonalLoop=1;jettySize=auto;html=1;exitX=0.5;exitY=1;exitDx=0;exitDy=0;exitPerimeter=0;" edge="1" parent="WIyWlLk6GJQsqaUBKTNV-1" source="0ubzOqU264QeY3HJ3DIO-54" target="0ubzOqU264QeY3HJ3DIO-58">
          <mxGeometry relative="1" as="geometry" />
        </mxCell>
        <mxCell id="0ubzOqU264QeY3HJ3DIO-54" value="" style="verticalLabelPosition=bottom;verticalAlign=top;html=1;shape=mxgraph.flowchart.on-page_reference;" vertex="1" parent="WIyWlLk6GJQsqaUBKTNV-1">
          <mxGeometry x="210" y="460" width="40" height="40" as="geometry" />
        </mxCell>
        <mxCell id="0ubzOqU264QeY3HJ3DIO-55" value="16" style="text;html=1;strokeColor=none;fillColor=none;align=center;verticalAlign=middle;whiteSpace=wrap;rounded=0;" vertex="1" parent="WIyWlLk6GJQsqaUBKTNV-1">
          <mxGeometry x="210" y="470" width="40" height="20" as="geometry" />
        </mxCell>
        <mxCell id="0ubzOqU264QeY3HJ3DIO-58" value="" style="verticalLabelPosition=bottom;verticalAlign=top;html=1;shape=mxgraph.flowchart.on-page_reference;" vertex="1" parent="WIyWlLk6GJQsqaUBKTNV-1">
          <mxGeometry x="220" y="550" width="40" height="40" as="geometry" />
        </mxCell>
        <mxCell id="0ubzOqU264QeY3HJ3DIO-68" style="edgeStyle=orthogonalEdgeStyle;rounded=0;orthogonalLoop=1;jettySize=auto;html=1;exitX=0.5;exitY=1;exitDx=0;exitDy=0;entryX=0.5;entryY=0;entryDx=0;entryDy=0;" edge="1" parent="WIyWlLk6GJQsqaUBKTNV-1" source="0ubzOqU264QeY3HJ3DIO-59" target="0ubzOqU264QeY3HJ3DIO-7">
          <mxGeometry relative="1" as="geometry">
            <mxPoint x="430" y="80" as="targetPoint" />
            <Array as="points">
              <mxPoint x="240" y="720" />
              <mxPoint x="790" y="720" />
              <mxPoint x="790" y="50" />
              <mxPoint x="430" y="50" />
            </Array>
          </mxGeometry>
        </mxCell>
        <mxCell id="0ubzOqU264QeY3HJ3DIO-59" value="19" style="text;html=1;strokeColor=none;fillColor=none;align=center;verticalAlign=middle;whiteSpace=wrap;rounded=0;" vertex="1" parent="WIyWlLk6GJQsqaUBKTNV-1">
          <mxGeometry x="220" y="565" width="40" height="20" as="geometry" />
        </mxCell>
        <mxCell id="0ubzOqU264QeY3HJ3DIO-62" value="" style="verticalLabelPosition=bottom;verticalAlign=top;html=1;shape=mxgraph.flowchart.on-page_reference;" vertex="1" parent="WIyWlLk6GJQsqaUBKTNV-1">
          <mxGeometry x="530" y="450" width="40" height="40" as="geometry" />
        </mxCell>
        <mxCell id="0ubzOqU264QeY3HJ3DIO-70" style="edgeStyle=orthogonalEdgeStyle;rounded=0;orthogonalLoop=1;jettySize=auto;html=1;entryX=0.5;entryY=1;entryDx=0;entryDy=0;entryPerimeter=0;" edge="1" parent="WIyWlLk6GJQsqaUBKTNV-1" source="0ubzOqU264QeY3HJ3DIO-63" target="0ubzOqU264QeY3HJ3DIO-48">
          <mxGeometry relative="1" as="geometry">
            <mxPoint x="550" y="670" as="targetPoint" />
            <Array as="points">
              <mxPoint x="550" y="760" />
              <mxPoint x="150" y="760" />
            </Array>
          </mxGeometry>
        </mxCell>
        <mxCell id="0ubzOqU264QeY3HJ3DIO-63" value="17" style="text;html=1;strokeColor=none;fillColor=none;align=center;verticalAlign=middle;whiteSpace=wrap;rounded=0;" vertex="1" parent="WIyWlLk6GJQsqaUBKTNV-1">
          <mxGeometry x="530" y="460" width="40" height="20" as="geometry" />
        </mxCell>
        <mxCell id="0ubzOqU264QeY3HJ3DIO-66" style="edgeStyle=orthogonalEdgeStyle;rounded=0;orthogonalLoop=1;jettySize=auto;html=1;exitX=0.5;exitY=0;exitDx=0;exitDy=0;exitPerimeter=0;entryX=1;entryY=0.75;entryDx=0;entryDy=0;" edge="1" parent="WIyWlLk6GJQsqaUBKTNV-1" source="0ubzOqU264QeY3HJ3DIO-64" target="0ubzOqU264QeY3HJ3DIO-9">
          <mxGeometry relative="1" as="geometry" />
        </mxCell>
        <mxCell id="0ubzOqU264QeY3HJ3DIO-64" value="" style="verticalLabelPosition=bottom;verticalAlign=top;html=1;shape=mxgraph.flowchart.on-page_reference;" vertex="1" parent="WIyWlLk6GJQsqaUBKTNV-1">
          <mxGeometry x="730" y="330" width="40" height="40" as="geometry" />
        </mxCell>
        <mxCell id="0ubzOqU264QeY3HJ3DIO-73" style="edgeStyle=orthogonalEdgeStyle;rounded=0;orthogonalLoop=1;jettySize=auto;html=1;entryX=1;entryY=0.5;entryDx=0;entryDy=0;" edge="1" parent="WIyWlLk6GJQsqaUBKTNV-1" source="0ubzOqU264QeY3HJ3DIO-65" target="0ubzOqU264QeY3HJ3DIO-63">
          <mxGeometry relative="1" as="geometry" />
        </mxCell>
        <mxCell id="0ubzOqU264QeY3HJ3DIO-65" value="18" style="text;html=1;strokeColor=none;fillColor=none;align=center;verticalAlign=middle;whiteSpace=wrap;rounded=0;" vertex="1" parent="WIyWlLk6GJQsqaUBKTNV-1">
          <mxGeometry x="730" y="340" width="40" height="20" as="geometry" />
        </mxCell>
      </root>
    </mxGraphModel>
  </diagram>
</mxfile>
